<?xml version="1.0" encoding="UTF-8"?>
<svg width="71px" height="63px" viewBox="0 0 71 63" version="1.1" xmlns="http://www.w3.org/2000/svg" xmlns:xlink="http://www.w3.org/1999/xlink">
    <title>1B860D7E-9448-427D-83ED-5F79D83E0617@1x</title>
    <g id="-----↳-Wizard-(+-record-editors)" stroke="none" stroke-width="1" fill="none" fill-rule="evenodd">
        <g id="No-related-persons" transform="translate(-805.000000, -370.000000)">
            <g id="Group" transform="translate(800.000000, 364.000000)">
                <g id="Group" transform="translate(5.280000, 6.240000)">
                    <path d="M40.5477884,51.6430617 C26.2875215,51.6430617 14.7267514,40.0825385 14.7267514,25.821037 C14.7267514,11.5605232 26.2875215,4.50108928e-15 40.5477884,4.50108928e-15 C54.8085491,4.50108928e-15 66.3693193,11.5605232 66.3693193,25.821037 C66.3693193,40.0825385 54.8085491,51.6430617 40.5477884,51.6430617 Z" id="Fill-20" fill="#FFDD6A" opacity="0.287644159" style="mix-blend-mode: multiply;"></path>
                    <g id="Group-49" opacity="0.436825707" style="mix-blend-mode: multiply;" transform="translate(23.280096, 40.542208)" fill="#00C5A3" fill-rule="nonzero">
                        <polygon id="Stroke-41" points="31.728155 19.9769916 31.728155 21.2618034 30.4433432 21.2618034 30.4433432 20.7478787 31.21408 20.74784 31.2142303 19.9769916"></polygon>
                        <path d="M31.7203725,17.8674399 C31.7014087,17.1540704 31.6481109,16.4464161 31.56108,15.7467912 L31.051086,15.8102327 C31.1360615,16.4933343 31.188108,17.1843741 31.2066293,17.881097 L31.7203725,17.8674399 Z M31.1937972,13.6498385 C31.0354494,12.9529687 30.8427527,12.2687682 30.6168758,11.6001106 L30.1299813,11.7645868 C30.3502421,12.4166192 30.5381821,13.0839303 30.6926474,13.7637134 L31.1937972,13.6498385 Z M29.8307258,9.62164429 C29.5313628,8.97106748 29.1991588,8.34185663 28.8360596,7.73727082 L28.3954846,8.00186917 C28.7488916,8.59031682 29.0723226,9.20291123 29.3638567,9.83647415 L29.8307258,9.62164429 Z M27.6319811,5.96937774 C27.1938718,5.40012207 26.7262657,4.86253865 26.2319751,4.35990387 L25.8655467,4.72024929 C26.3452165,5.2080165 26.7991934,5.72993104 27.2247082,6.2828222 L27.6319811,5.96937774 Z M24.6467749,2.94038658 C24.0805091,2.49585801 23.4903601,2.09396202 22.8798134,1.73748365 L22.6206848,2.18129778 C23.2108172,2.52585697 23.7815314,2.9145177 24.3294354,3.34463186 L24.6467749,2.94038658 Z M20.951654,0.791375227 C20.2858158,0.523440987 19.6041705,0.307098825 18.9103074,0.144189731 L18.7928395,0.644509566 C19.4612225,0.801436286 20.118009,1.00988873 20.7598005,1.26814655 L20.951654,0.791375227 Z M16.7854418,-0.183202237 C16.5089407,-0.203983386 16.2313726,-0.216486744 15.9529179,-0.220656841 L15.7435707,-0.222221061 C15.3785156,-0.222221061 15.0149053,-0.207918526 14.6531444,-0.179438521 L14.6934789,0.332900992 C14.9721569,0.310961771 15.2519918,0.297759028 15.5327923,0.2933555 L15.7439133,0.291703687 C16.0796646,0.291703687 16.4141101,0.30426358 16.7469251,0.329277139 L16.7854418,-0.183202237 Z M12.5362683,0.15387279 C11.8431018,0.318836668 11.162234,0.53716205 10.4972548,0.806998458 L10.6904929,1.28321028 C11.3314742,1.02311178 11.9875274,0.812743389 12.6552521,0.653834289 L12.5362683,0.15387279 Z M8.57921803,1.75420609 C7.96959353,2.11193946 7.38041554,2.5149981 6.81516418,2.96059263 L7.13332584,3.36419119 C7.68026548,2.93303201 8.25005878,2.54323451 8.83931852,2.19745137 L8.57921803,1.75420609 Z M5.22256155,4.39366439 C4.7295718,4.89775731 4.26333445,5.43669442 3.82665442,6.0071948 L4.23475126,6.31956575 C4.65889345,5.76544544 5.11155869,5.24219671 5.58998514,4.75299508 L5.22256155,4.39366439 Z M2.63399234,7.76667128 C2.27204818,8.37180313 1.94101305,9.00147224 1.64282509,9.65242311 L2.11006071,9.86645469 C2.40045536,9.2325168 2.72275416,8.61946524 3.0750437,8.03047488 L2.63399234,7.76667128 Z M0.857399926,11.6399491 C0.632975389,12.3088266 0.441720375,12.9931535 0.284795792,13.6900641 L0.786167342,13.8029588 C0.939246301,13.1231269 1.12578278,12.4556832 1.34463058,11.8034267 L0.857399926,11.6399491 Z M-0.0792174868,15.7941038 C-0.164735857,16.4941642 -0.216498412,17.2021847 -0.233908685,17.9158549 L0.279863203,17.9283886 C0.296867425,17.2313629 0.347415347,16.5399565 0.430915075,15.8564208 L-0.0792174868,15.7941038 Z" id="Stroke-43"></path>
                        <polygon id="Stroke-45" points="0.273356573 19.9769916 0.27328 20.74784 1.0442437 20.7478787 1.0442437 21.2618034 -0.240568174 21.2618034 -0.240568174 19.9769916"></polygon>
                        <path d="M3.0042499,21.7478787 L4.96418764,21.7478787 L4.96418764,20.7478787 L3.0042499,20.7478787 L3.0042499,21.7478787 Z M6.92412539,21.7478787 L8.88406313,21.7478787 L8.88406313,20.7478787 L6.92412539,20.7478787 L6.92412539,21.7478787 Z M10.8440009,21.7478787 L12.8039386,21.7478787 L12.8039386,20.7478787 L10.8440009,20.7478787 L10.8440009,21.7478787 Z M14.7638764,21.7478787 L16.7238141,21.7478787 L16.7238141,20.7478787 L14.7638764,20.7478787 L14.7638764,21.7478787 Z M18.6837519,21.7478787 L20.6436896,21.7478787 L20.6436896,20.7478787 L18.6837519,20.7478787 L18.6837519,21.7478787 Z M22.6036273,21.7478787 L24.5635651,21.7478787 L24.5635651,20.7478787 L22.6036273,20.7478787 L22.6036273,21.7478787 Z M26.5235028,21.7478787 L28.4834406,21.7478787 L28.4834406,20.7478787 L26.5235028,20.7478787 L26.5235028,21.7478787 Z" id="Stroke-47"></path>
                    </g>
                    <path d="M0,62.080256 L0,53.8653434 C0,43.7083262 7.05499058,35.474432 15.7578735,35.474432 C24.4604131,35.474432 31.515232,43.7083262 31.515232,53.8653434 L31.515232,62.080256" id="Fill-50" fill="#00C5A3" opacity="0.436825707" style="mix-blend-mode: multiply;"></path>
                    <path d="M41.1495889,21.0332394 L41.035582,21.5343593 C40.4111168,21.3922908 39.7688523,21.3199064 39.1169817,21.3199064 L39.1169817,20.8059816 C39.8072792,20.8059816 40.4877821,20.8826756 41.1495889,21.0332394 Z M44.8105874,22.7996417 L44.489696,23.2010733 C43.9855672,22.7980892 43.437801,22.4526486 42.8565763,22.1719998 L43.0800418,21.7092019 C43.6960228,22.0066331 44.2764574,22.3726755 44.8105874,22.7996417 Z M47.3440958,25.9785606 L46.8810202,26.2014498 C46.6011129,25.6199132 46.2563855,25.0717597 45.8540713,24.5671674 L46.2559068,24.2467818 C46.6821634,24.7814034 47.0474504,25.3622488 47.3440958,25.9785606 Z M47.7285411,29.9347732 L47.7285405,29.9273119 C47.7282146,29.2766508 47.6557751,28.6355811 47.5139099,28.0122536 L48.0150201,27.8982043 C48.1553448,28.5147631 48.2315593,29.1475563 48.2413783,29.7894464 L48.2424658,29.9349512 L47.7285411,29.9347732 Z M47.337678,33.8979763 L46.874969,33.674327 C47.1551424,33.0946749 47.369544,32.4844936 47.5133541,31.8535099 L48.0144295,31.9677121 C47.8619728,32.6366334 47.6346741,33.2835198 47.337678,33.8979763 Z M44.8035461,37.0691119 L44.4830536,36.6673617 C44.9874856,36.2649557 45.4457305,35.8070656 45.8485283,35.302946 L46.2500294,35.6237504 C45.8233288,36.1577854 45.3379124,36.6428261 44.8035461,37.0691119 Z M41.1484158,38.8301323 L41.0344761,38.3289972 C41.6656228,38.1854976 42.2759871,37.9713819 42.8558426,37.6914661 L43.0792616,38.1542864 C42.4645893,38.4510094 41.8175091,38.678005 41.1484158,38.8301323 Z M37.0778736,38.8283981 L37.1922418,38.3273607 C37.8165409,38.4698649 38.4586742,38.5427115 39.1104464,38.5431952 L39.110065,39.0571198 C38.4198693,39.0566076 37.7395043,38.9794238 37.0778736,38.8283981 Z M33.4174833,37.0588862 L33.73869,36.6577069 C34.2424047,37.0610091 34.7897865,37.4068291 35.3706636,37.6879141 L35.1468081,38.1505234 C34.531198,37.8526312 33.9511729,37.4861881 33.4174833,37.0588862 Z M30.8867678,33.8785736 L31.3500051,33.6560205 C31.6294712,34.2377203 31.9737784,34.7860864 32.3757019,35.2909405 L31.9736339,35.6110342 C31.54779,35.0761337 31.1829469,34.4950609 30.8867678,33.8785736 Z M30.5052561,29.9217032 L30.5052512,29.9356357 C30.5055393,30.583865 30.5774126,31.2225842 30.7182164,31.8437344 L30.2170076,31.9573496 C30.0777323,31.3429422 30.00211,30.7124597 29.992398,30.0729533 L29.9913317,29.9211184 L30.5052561,29.9217032 Z M30.8992774,25.9587242 L31.3618108,26.1827365 C31.0811445,26.7622473 30.8662401,27.3723444 30.7219264,28.0032952 L30.2209392,27.8887074 C30.3739291,27.2198231 30.60176,26.5730286 30.8992774,25.9587242 Z M33.4357994,22.7896177 L33.7559835,23.1916137 C33.2511819,23.5936811 32.792537,24.0512841 32.3893163,24.555171 L31.9880517,24.2340708 C32.4152003,23.7002822 32.9010408,23.2155455 33.4357994,22.7896177 Z M37.0929529,21.0312782 L37.2064672,21.5325099 C36.5752093,21.6754713 35.9646897,21.8890551 35.3846282,22.1684556 L35.1616073,21.7054434 C35.7764984,21.4092664 36.4237432,21.1828347 37.0929529,21.0312782 Z" id="Stroke-52" fill="#00C5A3" fill-rule="nonzero" opacity="0.516113281"></path>
                    <path d="M25.813984,23.834384 C25.813984,29.4757548 21.2406957,34.04912 15.5994197,34.04912 C9.95762858,34.04912 5.384512,29.4757548 5.384512,23.834384 C5.384512,18.1930132 9.95762858,13.619648 15.5994197,13.619648 C21.2406957,13.619648 25.813984,18.1930132 25.813984,23.834384" id="Fill-54" fill="#00C5A3" opacity="0.436825707" style="mix-blend-mode: multiply;"></path>
                    <polygon id="Fill-56" fill="#00C5A3" opacity="0.436825707" style="mix-blend-mode: multiply;" points="57.5039081 17.262112 56.046354 17.262112 56.046354 20.1754741 53.132464 20.1754741 53.132464 21.6330688 56.046354 21.6330688 56.046354 24.54704 57.5039081 24.54704 57.5039081 21.6330688 60.417392 21.6330688 60.417392 20.1754741 57.5039081 20.1754741"></polygon>
                    <polygon id="Fill-58" fill="#00C5A3" opacity="0.436825707" style="mix-blend-mode: multiply;" points="59.4200891 34.207488 58.564244 34.207488 58.564244 35.9174122 56.854112 35.9174122 56.854112 36.7729803 58.564244 36.7729803 58.564244 38.483424 59.4200891 38.483424 59.4200891 36.7729803 61.130048 36.7729803 61.130048 35.9174122 59.4200891 35.9174122"></polygon>
                    <polygon id="Fill-60" fill="#00C5A3" opacity="0.436825707" style="mix-blend-mode: multiply;" points="68.7003623 25.655616 68.1299136 25.655616 68.1299136 26.7954445 66.989664 26.7954445 66.989664 27.3660876 68.1299136 27.3660876 68.1299136 28.50624 68.7003623 28.50624 68.7003623 27.3660876 69.840288 27.3660876 69.840288 26.7954445 68.7003623 26.7954445"></polygon>
                </g>
            </g>
        </g>
    </g>
</svg>